<svg xmlns="http://www.w3.org/2000/svg" width="1440" height="958" viewBox="0 -58 1440 958"><rect x="0" y="0" width="1440" height="900" fill="#16181d" rx="0"/><rect x="0" y="-58" width="1440" height="58" fill="#0b0d12" rx="0"/><text x="16" y="-30" font-family="Noto Sans KR, Pretendard, sans-serif" font-size="18" fill="#ffffff" text-anchor="start" font-weight="700">SCR-WGHT-001 · 목적지·조건 설정</text><text x="16" y="-12" font-family="Noto Sans KR, Pretendard, sans-serif" font-size="11" fill="#9aa0a6" text-anchor="start" font-weight="400">REQ-FUNC-002 REQ-FUNC-003 REQ-FUNC-006 · 사이드바 [조건·추천] 탭 — 목적지 · 조건 · 추천 목록</text><rect x="0" y="0" width="1060" height="900" fill="#11131a" rx="0"/><polygon points="381,248 354,268 318,279 306,239 334,210 372,220" fill="#2e9e5b" fill-opacity="0.5" stroke="#0d0f14" stroke-width="1"/><polygon points="800,192 785,209 747,211 743,182 764,147 786,158" fill="#e0a52b" fill-opacity="0.5" stroke="#0d0f14" stroke-width="1"/><polygon points="446,568 405,608 340,594 322,539 366,485 420,494" fill="#c2504a" fill-opacity="0.5" stroke="#0d0f14" stroke-width="1"/><polygon points="130,625 80,662 18,659 16,603 45,565 97,580" fill="#2e9e5b" fill-opacity="0.5" stroke="#0d0f14" stroke-width="1"/><polygon points="471,470 430,508 396,493 384,460 405,420 449,417" fill="#e0a52b" fill-opacity="0.5" stroke="#0d0f14" stroke-width="1"/><polygon points="407,686 386,741 334,709 296,656 343,597 411,607" fill="#c2504a" fill-opacity="0.5" stroke="#0d0f14" stroke-width="1"/><polygon points="588,444 552,487 489,478 493,429 515,388 575,393" fill="#2e9e5b" fill-opacity="0.5" stroke="#0d0f14" stroke-width="1"/><polygon points="921,763 877,799 832,799 826,752 859,697 894,726" fill="#e0a52b" fill-opacity="0.5" stroke="#0d0f14" stroke-width="1"/><polygon points="955,586 901,606 846,611 833,551 853,500 921,517" fill="#c2504a" fill-opacity="0.5" stroke="#0d0f14" stroke-width="1"/><polygon points="1010,527 988,554 960,546 943,512 967,497 995,497" fill="#2e9e5b" fill-opacity="0.5" stroke="#0d0f14" stroke-width="1"/><polygon points="355,547 319,566 273,578 266,528 282,483 344,492" fill="#e0a52b" fill-opacity="0.5" stroke="#0d0f14" stroke-width="1"/><polygon points="828,121 810,141 788,136 765,113 793,88 820,92" fill="#c2504a" fill-opacity="0.5" stroke="#0d0f14" stroke-width="1"/><polygon points="159,719 124,745 76,759 65,688 97,641 143,657" fill="#2e9e5b" fill-opacity="0.5" stroke="#0d0f14" stroke-width="1"/><polygon points="1006,427 958,477 895,488 865,409 920,372 977,378" fill="#e0a52b" fill-opacity="0.5" stroke="#0d0f14" stroke-width="1"/><polygon points="1007,279 972,322 933,311 908,263 936,238 980,241" fill="#c2504a" fill-opacity="0.5" stroke="#0d0f14" stroke-width="1"/><polygon points="140,544 110,575 67,565 41,534 84,508 122,503" fill="#2e9e5b" fill-opacity="0.5" stroke="#0d0f14" stroke-width="1"/><polygon points="443,763 423,784 384,786 360,746 396,717 430,717" fill="#e0a52b" fill-opacity="0.5" stroke="#0d0f14" stroke-width="1"/><polygon points="290,696 272,726 233,719 225,683 246,665 278,655" fill="#c2504a" fill-opacity="0.5" stroke="#0d0f14" stroke-width="1"/><polygon points="386,547 366,569 340,566 329,538 347,512 381,508" fill="#2e9e5b" fill-opacity="0.5" stroke="#0d0f14" stroke-width="1"/><polygon points="829,699 808,758 733,739 704,687 758,644 816,657" fill="#e0a52b" fill-opacity="0.5" stroke="#0d0f14" stroke-width="1"/><polygon points="675,211 645,223 624,223 608,197 629,176 660,169" fill="#c2504a" fill-opacity="0.5" stroke="#0d0f14" stroke-width="1"/><polygon points="269,677 246,720 203,696 167,649 209,631 266,628" fill="#2e9e5b" fill-opacity="0.5" stroke="#0d0f14" stroke-width="1"/><polygon points="131,251 111,282 84,276 65,238 97,215 126,207" fill="#e0a52b" fill-opacity="0.5" stroke="#0d0f14" stroke-width="1"/><polygon points="516,748 467,784 417,785 393,722 441,686 480,701" fill="#c2504a" fill-opacity="0.5" stroke="#0d0f14" stroke-width="1"/><polygon points="756,652 719,681 689,667 669,637 691,610 731,604" fill="#2e9e5b" fill-opacity="0.5" stroke="#0d0f14" stroke-width="1"/><polygon points="714,246 684,274 649,278 636,237 658,196 706,205" fill="#e0a52b" fill-opacity="0.5" stroke="#0d0f14" stroke-width="1"/><polygon points="277,553 225,584 187,583 176,540 197,503 252,506" fill="#c2504a" fill-opacity="0.5" stroke="#0d0f14" stroke-width="1"/><polygon points="203,305 181,331 122,336 110,299 155,251 190,260" fill="#2e9e5b" fill-opacity="0.5" stroke="#0d0f14" stroke-width="1"/><polygon points="523,205 476,257 418,242 416,201 442,172 503,162" fill="#e0a52b" fill-opacity="0.5" stroke="#0d0f14" stroke-width="1"/><polygon points="398,222 361,259 287,245 288,197 321,154 367,157" fill="#c2504a" fill-opacity="0.5" stroke="#0d0f14" stroke-width="1"/><polygon points="440,661 414,705 366,695 363,648 389,631 424,627" fill="#2e9e5b" fill-opacity="0.5" stroke="#0d0f14" stroke-width="1"/><polygon points="179,566 146,582 115,582 109,552 124,516 159,534" fill="#e0a52b" fill-opacity="0.5" stroke="#0d0f14" stroke-width="1"/><polygon points="366,546 340,591 276,582 276,537 302,491 345,507" fill="#c2504a" fill-opacity="0.5" stroke="#0d0f14" stroke-width="1"/><polygon points="194,320 152,359 99,333 104,290 124,251 168,259" fill="#2e9e5b" fill-opacity="0.5" stroke="#0d0f14" stroke-width="1"/><polyline points="80,700 300,520 520,470 760,330 980,250" fill="none" stroke="#0052a4" stroke-width="3" stroke-linejoin="round" stroke-linecap="round"/><circle cx="80" cy="700" r="3.5" fill="#11131a" stroke="#0052a4" stroke-width="2"/><circle cx="300" cy="520" r="3.5" fill="#11131a" stroke="#0052a4" stroke-width="2"/><circle cx="520" cy="470" r="3.5" fill="#11131a" stroke="#0052a4" stroke-width="2"/><circle cx="760" cy="330" r="3.5" fill="#11131a" stroke="#0052a4" stroke-width="2"/><circle cx="980" cy="250" r="3.5" fill="#11131a" stroke="#0052a4" stroke-width="2"/><polyline points="120,240 330,300 560,330 800,480 1000,620" fill="none" stroke="#00a84d" stroke-width="3" stroke-linejoin="round" stroke-linecap="round"/><circle cx="120" cy="240" r="3.5" fill="#11131a" stroke="#00a84d" stroke-width="2"/><circle cx="330" cy="300" r="3.5" fill="#11131a" stroke="#00a84d" stroke-width="2"/><circle cx="560" cy="330" r="3.5" fill="#11131a" stroke="#00a84d" stroke-width="2"/><circle cx="800" cy="480" r="3.5" fill="#11131a" stroke="#00a84d" stroke-width="2"/><circle cx="1000" cy="620" r="3.5" fill="#11131a" stroke="#00a84d" stroke-width="2"/><polyline points="200,820 420,700 640,640 900,560" fill="none" stroke="#ef7c1c" stroke-width="3" stroke-linejoin="round" stroke-linecap="round"/><circle cx="200" cy="820" r="3.5" fill="#11131a" stroke="#ef7c1c" stroke-width="2"/><circle cx="420" cy="700" r="3.5" fill="#11131a" stroke="#ef7c1c" stroke-width="2"/><circle cx="640" cy="640" r="3.5" fill="#11131a" stroke="#ef7c1c" stroke-width="2"/><circle cx="900" cy="560" r="3.5" fill="#11131a" stroke="#ef7c1c" stroke-width="2"/><polyline points="60,430 280,400 520,360 740,200 1010,120" fill="none" stroke="#bb1833" stroke-width="3" stroke-linejoin="round" stroke-linecap="round"/><circle cx="60" cy="430" r="3.5" fill="#11131a" stroke="#bb1833" stroke-width="2"/><circle cx="280" cy="400" r="3.5" fill="#11131a" stroke="#bb1833" stroke-width="2"/><circle cx="520" cy="360" r="3.5" fill="#11131a" stroke="#bb1833" stroke-width="2"/><circle cx="740" cy="200" r="3.5" fill="#11131a" stroke="#bb1833" stroke-width="2"/><circle cx="1010" cy="120" r="3.5" fill="#11131a" stroke="#bb1833" stroke-width="2"/><circle cx="740" cy="330" r="26" fill="#4d8bf5" fill-opacity="0.18"/><circle cx="740" cy="330" r="15" fill="#4d8bf5" fill-opacity="0.32"/><circle cx="740" cy="330" r="7" fill="#4d8bf5"/><text x="756" y="316" font-family="Noto Sans KR, Pretendard, sans-serif" font-size="11" fill="#e8eaed" text-anchor="start" font-weight="400">강남역</text><rect x="16" y="16" width="54" height="30" fill="#1e2128" rx="6" stroke="#333842" stroke-width="1"/><text x="43.0" y="35.0" font-family="Noto Sans KR, Pretendard, sans-serif" font-size="12" fill="#e8eaed" text-anchor="middle" font-weight="400">밝게</text><rect x="78" y="16" width="120" height="30" fill="#1e2128" rx="6" stroke="#333842" stroke-width="1"/><text x="138.0" y="35.0" font-family="Noto Sans KR, Pretendard, sans-serif" font-size="12" fill="#e8eaed" text-anchor="middle" font-weight="400">✓ 지하철 노선도</text><rect x="206" y="16" width="72" height="30" fill="#1e2128" rx="6" stroke="#333842" stroke-width="1"/><text x="242.0" y="35.0" font-family="Noto Sans KR, Pretendard, sans-serif" font-size="12" fill="#e8eaed" text-anchor="middle" font-weight="400">노선 ▸</text><rect x="1004" y="760" width="36" height="32" fill="#1e2128" rx="6" stroke="#333842" stroke-width="1"/><text x="1022.0" y="780.0" font-family="Noto Sans KR, Pretendard, sans-serif" font-size="12" fill="#e8eaed" text-anchor="middle" font-weight="400">+</text><rect x="1004" y="796" width="36" height="32" fill="#1e2128" rx="6" stroke="#333842" stroke-width="1"/><text x="1022.0" y="816.0" font-family="Noto Sans KR, Pretendard, sans-serif" font-size="12" fill="#e8eaed" text-anchor="middle" font-weight="400">−</text><text x="16" y="882" font-family="Noto Sans KR, Pretendard, sans-serif" font-size="10" fill="#9aa0a6" text-anchor="start" font-weight="400">지도 데이터 ©OpenStreetMap · 등급 산정 근거: 공공데이터</text><rect x="1060" y="0" width="380" height="900" fill="#1e2128" rx="0"/><text x="1080" y="34" font-family="Noto Sans KR, Pretendard, sans-serif" font-size="15" fill="#e8eaed" text-anchor="start" font-weight="700">I Don't Know Seoul</text><rect x="1080" y="50" width="104" height="26" fill="#262a33" rx="6" stroke="#333842" stroke-width="1"/><text x="1132.0" y="67.0" font-family="Noto Sans KR, Pretendard, sans-serif" font-size="11" fill="#e8eaed" text-anchor="middle" font-weight="400">seoul_kim ▾</text><rect x="1290" y="50" width="84" height="26" fill="#262a33" rx="6" stroke="#333842" stroke-width="1"/><text x="1332.0" y="67.0" font-family="Noto Sans KR, Pretendard, sans-serif" font-size="11" fill="#e8eaed" text-anchor="middle" font-weight="400">한 EN 日</text><rect x="1380" y="50" width="44" height="26" fill="#262a33" rx="6" stroke="#333842" stroke-width="1"/><text x="1402.0" y="67.0" font-family="Noto Sans KR, Pretendard, sans-serif" font-size="11" fill="#e8eaed" text-anchor="middle" font-weight="400">밝게</text><rect x="1080" y="92" width="340" height="34" fill="#262a33" rx="6" stroke="#333842" stroke-width="1"/><text x="1090" y="113.0" font-family="Noto Sans KR, Pretendard, sans-serif" font-size="12" fill="#9aa0a6" text-anchor="start" font-weight="400">회사나 학교를 검색하세요</text><circle cx="1070" cy="108" r="11" fill="#4d8bf5"/><text x="1070" y="112.5" font-family="Noto Sans KR, Pretendard, sans-serif" font-size="13" fill="#ffffff" text-anchor="middle" font-weight="700">①</text><text x="1080" y="140" font-family="Noto Sans KR, Pretendard, sans-serif" font-size="11" fill="#9aa0a6" text-anchor="start" font-weight="400">목적지 (최대 3)</text><rect x="1080" y="148" width="150" height="26" fill="#262a33" rx="13" stroke="#333842" stroke-width="1"/><text x="1094" y="165" font-family="Noto Sans KR, Pretendard, sans-serif" font-size="11" fill="#e8eaed" text-anchor="start" font-weight="400">강남역 지하철역</text><text x="1214" y="165" font-family="Noto Sans KR, Pretendard, sans-serif" font-size="12" fill="#9aa0a6" text-anchor="start" font-weight="400">×</text><rect x="1238" y="148" width="110" height="26" fill="#262a33" rx="13" stroke="#333842" stroke-width="1"/><text x="1252" y="165" font-family="Noto Sans KR, Pretendard, sans-serif" font-size="11" fill="#e8eaed" text-anchor="start" font-weight="400">판교역</text><text x="1334" y="165" font-family="Noto Sans KR, Pretendard, sans-serif" font-size="12" fill="#9aa0a6" text-anchor="start" font-weight="400">×</text><rect x="1080" y="180" width="340" height="26" fill="#1e2128" rx="13" stroke="#333842" stroke-width="1" stroke-dasharray="4 3"/><text x="1250.0" y="197" font-family="Noto Sans KR, Pretendard, sans-serif" font-size="11" fill="#9aa0a6" text-anchor="middle" font-weight="400">+ 목적지 추가</text><circle cx="1408" cy="160" r="11" fill="#4d8bf5"/><text x="1408" y="164.5" font-family="Noto Sans KR, Pretendard, sans-serif" font-size="13" fill="#ffffff" text-anchor="middle" font-weight="700">②</text><rect x="1080.0" y="216" width="113.33333333333333" height="32" fill="#1e2128" rx="6" stroke="#333842" stroke-width="1"/><text x="1136.6666666666667" y="237" font-family="Noto Sans KR, Pretendard, sans-serif" font-size="11" fill="#9aa0a6" text-anchor="middle" font-weight="400">상세 정보</text><rect x="1193.3333333333333" y="216" width="113.33333333333333" height="32" fill="#262a33" rx="6" stroke="#333842" stroke-width="1"/><text x="1250.0" y="237" font-family="Noto Sans KR, Pretendard, sans-serif" font-size="11" fill="#e8eaed" text-anchor="middle" font-weight="700">조건·추천</text><rect x="1193.3333333333333" y="246" width="113.33333333333333" height="2" fill="#4d8bf5" rx="0"/><rect x="1306.6666666666667" y="216" width="113.33333333333333" height="32" fill="#1e2128" rx="6" stroke="#333842" stroke-width="1"/><text x="1363.3333333333335" y="237" font-family="Noto Sans KR, Pretendard, sans-serif" font-size="11" fill="#9aa0a6" text-anchor="middle" font-weight="400">사용자 후기</text><text x="1080" y="262" font-family="Noto Sans KR, Pretendard, sans-serif" font-size="12" fill="#e8eaed" text-anchor="start" font-weight="700">조건 설정</text><circle cx="1408" cy="258" r="11" fill="#4d8bf5"/><text x="1408" y="262.5" font-family="Noto Sans KR, Pretendard, sans-serif" font-size="13" fill="#ffffff" text-anchor="middle" font-weight="700">⑧</text><text x="1394" y="262" font-family="Noto Sans KR, Pretendard, sans-serif" font-size="10" fill="#4d8bf5" text-anchor="end" font-weight="400">기본값</text><circle cx="1070" cy="284" r="11" fill="#4d8bf5"/><text x="1070" y="288.5" font-family="Noto Sans KR, Pretendard, sans-serif" font-size="13" fill="#ffffff" text-anchor="middle" font-weight="700">③</text><text x="1094" y="280" font-family="Noto Sans KR, Pretendard, sans-serif" font-size="11" fill="#9aa0a6" text-anchor="start" font-weight="400">통근 상한</text><text x="1420" y="280" font-family="Noto Sans KR, Pretendard, sans-serif" font-size="11" fill="#e8eaed" text-anchor="end" font-weight="400">40분</text><rect x="1094" y="288" width="326" height="4" fill="#333842" rx="2"/><rect x="1094" y="288" width="107" height="4" fill="#4d8bf5" rx="2"/><circle cx="1201" cy="290" r="7" fill="#ffffff"/><circle cx="1070" cy="318" r="11" fill="#4d8bf5"/><text x="1070" y="322.5" font-family="Noto Sans KR, Pretendard, sans-serif" font-size="13" fill="#ffffff" text-anchor="middle" font-weight="700">④</text><text x="1094" y="314" font-family="Noto Sans KR, Pretendard, sans-serif" font-size="11" fill="#9aa0a6" text-anchor="start" font-weight="400">월세 예산</text><text x="1420" y="314" font-family="Noto Sans KR, Pretendard, sans-serif" font-size="11" fill="#e8eaed" text-anchor="end" font-weight="400">제한 없음</text><rect x="1094" y="322" width="326" height="4" fill="#333842" rx="2"/><rect x="1094" y="322" width="0" height="4" fill="#4d8bf5" rx="2"/><circle cx="1094" cy="324" r="7" fill="#ffffff"/><circle cx="1070" cy="364" r="11" fill="#4d8bf5"/><text x="1070" y="368.5" font-family="Noto Sans KR, Pretendard, sans-serif" font-size="13" fill="#ffffff" text-anchor="middle" font-weight="700">⑤</text><text x="1094" y="356" font-family="Noto Sans KR, Pretendard, sans-serif" font-size="11" fill="#9aa0a6" text-anchor="start" font-weight="400">주택유형</text><rect x="1094" y="370" width="54" height="22" fill="#4d8bf5" rx="11"/><text x="1121.0" y="385" font-family="Noto Sans KR, Pretendard, sans-serif" font-size="10" fill="#fff" text-anchor="middle" font-weight="400">✓단독</text><rect x="1154" y="370" width="54" height="22" fill="#262a33" rx="11" stroke="#333842" stroke-width="1"/><text x="1181.0" y="385" font-family="Noto Sans KR, Pretendard, sans-serif" font-size="10" fill="#9aa0a6" text-anchor="middle" font-weight="400">연립</text><rect x="1214" y="370" width="54" height="22" fill="#262a33" rx="11" stroke="#333842" stroke-width="1"/><text x="1241.0" y="385" font-family="Noto Sans KR, Pretendard, sans-serif" font-size="10" fill="#9aa0a6" text-anchor="middle" font-weight="400">오피스텔</text><rect x="1274" y="370" width="54" height="22" fill="#262a33" rx="11" stroke="#333842" stroke-width="1"/><text x="1301.0" y="385" font-family="Noto Sans KR, Pretendard, sans-serif" font-size="10" fill="#9aa0a6" text-anchor="middle" font-weight="400">아파트</text><circle cx="1070" cy="412" r="11" fill="#4d8bf5"/><text x="1070" y="416.5" font-family="Noto Sans KR, Pretendard, sans-serif" font-size="13" fill="#ffffff" text-anchor="middle" font-weight="700">⑥</text><rect x="1094" y="404" width="90" height="22" fill="#4d8bf5" rx="11"/><text x="1139" y="419" font-family="Noto Sans KR, Pretendard, sans-serif" font-size="10" fill="#fff" text-anchor="middle" font-weight="400">환산월세</text><rect x="1190" y="404" width="90" height="22" fill="#262a33" rx="11" stroke="#333842" stroke-width="1"/><text x="1235" y="419" font-family="Noto Sans KR, Pretendard, sans-serif" font-size="10" fill="#9aa0a6" text-anchor="middle" font-weight="400">순수월세</text><circle cx="1070" cy="448" r="11" fill="#4d8bf5"/><text x="1070" y="452.5" font-family="Noto Sans KR, Pretendard, sans-serif" font-size="13" fill="#ffffff" text-anchor="middle" font-weight="700">⑦</text><text x="1094" y="440" font-family="Noto Sans KR, Pretendard, sans-serif" font-size="11" fill="#9aa0a6" text-anchor="start" font-weight="400">가중치 (합계 100 자동 조정)</text><text x="1094" y="448" font-family="Noto Sans KR, Pretendard, sans-serif" font-size="11" fill="#9aa0a6" text-anchor="start" font-weight="400">치안</text><text x="1420" y="448" font-family="Noto Sans KR, Pretendard, sans-serif" font-size="11" fill="#e8eaed" text-anchor="end" font-weight="400">30</text><rect x="1094" y="456" width="326" height="4" fill="#333842" rx="2"/><rect x="1094" y="456" width="97" height="4" fill="#4d8bf5" rx="2"/><circle cx="1191" cy="458" r="7" fill="#ffffff"/><text x="1094" y="476" font-family="Noto Sans KR, Pretendard, sans-serif" font-size="11" fill="#9aa0a6" text-anchor="start" font-weight="400">가격</text><text x="1420" y="476" font-family="Noto Sans KR, Pretendard, sans-serif" font-size="11" fill="#e8eaed" text-anchor="end" font-weight="400">35</text><rect x="1094" y="484" width="326" height="4" fill="#333842" rx="2"/><rect x="1094" y="484" width="114" height="4" fill="#4d8bf5" rx="2"/><circle cx="1208" cy="486" r="7" fill="#ffffff"/><text x="1094" y="504" font-family="Noto Sans KR, Pretendard, sans-serif" font-size="11" fill="#9aa0a6" text-anchor="start" font-weight="400">생활편의</text><text x="1420" y="504" font-family="Noto Sans KR, Pretendard, sans-serif" font-size="11" fill="#e8eaed" text-anchor="end" font-weight="400">35</text><rect x="1094" y="512" width="326" height="4" fill="#333842" rx="2"/><rect x="1094" y="512" width="114" height="4" fill="#4d8bf5" rx="2"/><circle cx="1208" cy="514" r="7" fill="#ffffff"/><rect x="1080" y="542" width="340" height="1" fill="#333842" rx="0"/><circle cx="1070" cy="566" r="11" fill="#4d8bf5"/><text x="1070" y="570.5" font-family="Noto Sans KR, Pretendard, sans-serif" font-size="13" fill="#ffffff" text-anchor="middle" font-weight="700">⑨</text><text x="1094" y="558" font-family="Noto Sans KR, Pretendard, sans-serif" font-size="12" fill="#e8eaed" text-anchor="start" font-weight="700">추천 지역 (상위 20)</text><rect x="1080" y="578" width="340" height="44" fill="#262a33" rx="8" stroke="#333842" stroke-width="1"/><text x="1092" y="596" font-family="Noto Sans KR, Pretendard, sans-serif" font-size="12" fill="#e8eaed" text-anchor="start" font-weight="600">1  풍덕천2동</text><text x="1092" y="612" font-family="Noto Sans KR, Pretendard, sans-serif" font-size="10" fill="#9aa0a6" text-anchor="start" font-weight="400">수지구 · 38분</text><circle cx="1350" cy="594" r="4" fill="#2e9e5b"/><text x="1360" y="598" font-family="Noto Sans KR, Pretendard, sans-serif" font-size="10" fill="#2e9e5b" text-anchor="start" font-weight="400">Best</text><text x="1410" y="612" font-family="Noto Sans KR, Pretendard, sans-serif" font-size="13" fill="#e8eaed" text-anchor="end" font-weight="700">67.2</text><rect x="1080" y="628" width="340" height="44" fill="#262a33" rx="8" stroke="#333842" stroke-width="1"/><text x="1092" y="646" font-family="Noto Sans KR, Pretendard, sans-serif" font-size="12" fill="#e8eaed" text-anchor="start" font-weight="600">2  상현1동</text><text x="1092" y="662" font-family="Noto Sans KR, Pretendard, sans-serif" font-size="10" fill="#9aa0a6" text-anchor="start" font-weight="400">수지구 · 41분</text><circle cx="1350" cy="644" r="4" fill="#2e9e5b"/><text x="1360" y="648" font-family="Noto Sans KR, Pretendard, sans-serif" font-size="10" fill="#2e9e5b" text-anchor="start" font-weight="400">Best</text><text x="1410" y="662" font-family="Noto Sans KR, Pretendard, sans-serif" font-size="13" fill="#e8eaed" text-anchor="end" font-weight="700">65.8</text><rect x="1080" y="678" width="340" height="44" fill="#262a33" rx="8" stroke="#333842" stroke-width="1"/><text x="1092" y="696" font-family="Noto Sans KR, Pretendard, sans-serif" font-size="12" fill="#e8eaed" text-anchor="start" font-weight="600">3  정자동</text><text x="1092" y="712" font-family="Noto Sans KR, Pretendard, sans-serif" font-size="10" fill="#9aa0a6" text-anchor="start" font-weight="400">분당구 · 44분</text><circle cx="1350" cy="694" r="4" fill="#e0a52b"/><text x="1360" y="698" font-family="Noto Sans KR, Pretendard, sans-serif" font-size="10" fill="#e0a52b" text-anchor="start" font-weight="400">Normal</text><text x="1410" y="712" font-family="Noto Sans KR, Pretendard, sans-serif" font-size="13" fill="#e8eaed" text-anchor="end" font-weight="700">58.1</text><circle cx="1408" cy="724" r="11" fill="#4d8bf5"/><text x="1408" y="728.5" font-family="Noto Sans KR, Pretendard, sans-serif" font-size="13" fill="#ffffff" text-anchor="middle" font-weight="700">⑩</text><text x="1394" y="720" font-family="Noto Sans KR, Pretendard, sans-serif" font-size="9" fill="#9aa0a6" text-anchor="end" font-weight="400">hover=지도 강조, 클릭=상세</text><rect x="1080" y="736" width="340" height="32" fill="#4d8bf5" rx="6"/><text x="1250.0" y="756.0" font-family="Noto Sans KR, Pretendard, sans-serif" font-size="12" fill="#fff" text-anchor="middle" font-weight="400">🔗  이 결과 링크 복사</text></svg>