<svg xmlns="http://www.w3.org/2000/svg" width="1440" height="958" viewBox="0 -58 1440 958">
<rect x="0" y="0" width="1440" height="900" fill="#16181d" rx="0"/>
<rect x="0" y="-58" width="1440" height="58" fill="#0b0d12" rx="0"/>
<text x="16" y="-30" font-family="Noto Sans KR, Pretendard, sans-serif" font-size="18" fill="#ffffff" text-anchor="start" font-weight="700">SCR-RVW-001 · 행정동 후기 목록</text>
<text x="16" y="-12" font-family="Noto Sans KR, Pretendard, sans-serif" font-size="11" fill="#9aa0a6" text-anchor="start" font-weight="400">REQ-FUNC-012 REQ-FUNC-013 REQ-FUNC-015 · 사이드바 [사용자 후기] 탭 — 정렬 · 후기 카드 · 도움돼요</text>
<rect x="0" y="0" width="1060" height="900" fill="#11131a" rx="0"/>
<polygon points="381,248 354,268 318,279 306,239 334,210 372,220" fill="#2e9e5b" fill-opacity="0.5" stroke="#0d0f14" stroke-width="1"/>
<polygon points="800,192 785,209 747,211 743,182 764,147 786,158" fill="#e0a52b" fill-opacity="0.5" stroke="#0d0f14" stroke-width="1"/>
<polygon points="446,568 405,608 340,594 322,539 366,485 420,494" fill="#c2504a" fill-opacity="0.5" stroke="#0d0f14" stroke-width="1"/>
<polygon points="130,625 80,662 18,659 16,603 45,565 97,580" fill="#2e9e5b" fill-opacity="0.5" stroke="#0d0f14" stroke-width="1"/>
<polygon points="471,470 430,508 396,493 384,460 405,420 449,417" fill="#e0a52b" fill-opacity="0.5" stroke="#0d0f14" stroke-width="1"/>
<polygon points="407,686 386,741 334,709 296,656 343,597 411,607" fill="#c2504a" fill-opacity="0.5" stroke="#0d0f14" stroke-width="1"/>
<polygon points="588,444 552,487 489,478 493,429 515,388 575,393" fill="#2e9e5b" fill-opacity="0.5" stroke="#0d0f14" stroke-width="1"/>
<polygon points="921,763 877,799 832,799 826,752 859,697 894,726" fill="#e0a52b" fill-opacity="0.5" stroke="#0d0f14" stroke-width="1"/>
<polygon points="955,586 901,606 846,611 833,551 853,500 921,517" fill="#c2504a" fill-opacity="0.5" stroke="#0d0f14" stroke-width="1"/>
<polygon points="1010,527 988,554 960,546 943,512 967,497 995,497" fill="#2e9e5b" fill-opacity="0.5" stroke="#0d0f14" stroke-width="1"/>
<polygon points="355,547 319,566 273,578 266,528 282,483 344,492" fill="#e0a52b" fill-opacity="0.5" stroke="#0d0f14" stroke-width="1"/>
<polygon points="828,121 810,141 788,136 765,113 793,88 820,92" fill="#c2504a" fill-opacity="0.5" stroke="#0d0f14" stroke-width="1"/>
<polygon points="159,719 124,745 76,759 65,688 97,641 143,657" fill="#2e9e5b" fill-opacity="0.5" stroke="#0d0f14" stroke-width="1"/>
<polygon points="1006,427 958,477 895,488 865,409 920,372 977,378" fill="#e0a52b" fill-opacity="0.5" stroke="#0d0f14" stroke-width="1"/>
<polygon points="1007,279 972,322 933,311 908,263 936,238 980,241" fill="#c2504a" fill-opacity="0.5" stroke="#0d0f14" stroke-width="1"/>
<polygon points="140,544 110,575 67,565 41,534 84,508 122,503" fill="#2e9e5b" fill-opacity="0.5" stroke="#0d0f14" stroke-width="1"/>
<polygon points="443,763 423,784 384,786 360,746 396,717 430,717" fill="#e0a52b" fill-opacity="0.5" stroke="#0d0f14" stroke-width="1"/>
<polygon points="290,696 272,726 233,719 225,683 246,665 278,655" fill="#c2504a" fill-opacity="0.5" stroke="#0d0f14" stroke-width="1"/>
<polygon points="386,547 366,569 340,566 329,538 347,512 381,508" fill="#2e9e5b" fill-opacity="0.5" stroke="#0d0f14" stroke-width="1"/>
<polygon points="829,699 808,758 733,739 704,687 758,644 816,657" fill="#e0a52b" fill-opacity="0.5" stroke="#0d0f14" stroke-width="1"/>
<polygon points="675,211 645,223 624,223 608,197 629,176 660,169" fill="#c2504a" fill-opacity="0.5" stroke="#0d0f14" stroke-width="1"/>
<polygon points="269,677 246,720 203,696 167,649 209,631 266,628" fill="#2e9e5b" fill-opacity="0.5" stroke="#0d0f14" stroke-width="1"/>
<polygon points="131,251 111,282 84,276 65,238 97,215 126,207" fill="#e0a52b" fill-opacity="0.5" stroke="#0d0f14" stroke-width="1"/>
<polygon points="516,748 467,784 417,785 393,722 441,686 480,701" fill="#c2504a" fill-opacity="0.5" stroke="#0d0f14" stroke-width="1"/>
<polygon points="756,652 719,681 689,667 669,637 691,610 731,604" fill="#2e9e5b" fill-opacity="0.5" stroke="#0d0f14" stroke-width="1"/>
<polygon points="714,246 684,274 649,278 636,237 658,196 706,205" fill="#e0a52b" fill-opacity="0.5" stroke="#0d0f14" stroke-width="1"/>
<polygon points="277,553 225,584 187,583 176,540 197,503 252,506" fill="#c2504a" fill-opacity="0.5" stroke="#0d0f14" stroke-width="1"/>
<polygon points="203,305 181,331 122,336 110,299 155,251 190,260" fill="#2e9e5b" fill-opacity="0.5" stroke="#0d0f14" stroke-width="1"/>
<polygon points="523,205 476,257 418,242 416,201 442,172 503,162" fill="#e0a52b" fill-opacity="0.5" stroke="#0d0f14" stroke-width="1"/>
<polygon points="398,222 361,259 287,245 288,197 321,154 367,157" fill="#c2504a" fill-opacity="0.5" stroke="#0d0f14" stroke-width="1"/>
<polygon points="440,661 414,705 366,695 363,648 389,631 424,627" fill="#2e9e5b" fill-opacity="0.5" stroke="#0d0f14" stroke-width="1"/>
<polygon points="179,566 146,582 115,582 109,552 124,516 159,534" fill="#e0a52b" fill-opacity="0.5" stroke="#0d0f14" stroke-width="1"/>
<polygon points="366,546 340,591 276,582 276,537 302,491 345,507" fill="#c2504a" fill-opacity="0.5" stroke="#0d0f14" stroke-width="1"/>
<polygon points="194,320 152,359 99,333 104,290 124,251 168,259" fill="#2e9e5b" fill-opacity="0.5" stroke="#0d0f14" stroke-width="1"/>
<polyline points="80,700 300,520 520,470 760,330 980,250" fill="none" stroke="#0052a4" stroke-width="3" stroke-linejoin="round" stroke-linecap="round"/>
<circle cx="80" cy="700" r="3.5" fill="#11131a" stroke="#0052a4" stroke-width="2"/>
<circle cx="300" cy="520" r="3.5" fill="#11131a" stroke="#0052a4" stroke-width="2"/>
<circle cx="520" cy="470" r="3.5" fill="#11131a" stroke="#0052a4" stroke-width="2"/>
<circle cx="760" cy="330" r="3.5" fill="#11131a" stroke="#0052a4" stroke-width="2"/>
<circle cx="980" cy="250" r="3.5" fill="#11131a" stroke="#0052a4" stroke-width="2"/>
<polyline points="120,240 330,300 560,330 800,480 1000,620" fill="none" stroke="#00a84d" stroke-width="3" stroke-linejoin="round" stroke-linecap="round"/>
<circle cx="120" cy="240" r="3.5" fill="#11131a" stroke="#00a84d" stroke-width="2"/>
<circle cx="330" cy="300" r="3.5" fill="#11131a" stroke="#00a84d" stroke-width="2"/>
<circle cx="560" cy="330" r="3.5" fill="#11131a" stroke="#00a84d" stroke-width="2"/>
<circle cx="800" cy="480" r="3.5" fill="#11131a" stroke="#00a84d" stroke-width="2"/>
<circle cx="1000" cy="620" r="3.5" fill="#11131a" stroke="#00a84d" stroke-width="2"/>
<polyline points="200,820 420,700 640,640 900,560" fill="none" stroke="#ef7c1c" stroke-width="3" stroke-linejoin="round" stroke-linecap="round"/>
<circle cx="200" cy="820" r="3.5" fill="#11131a" stroke="#ef7c1c" stroke-width="2"/>
<circle cx="420" cy="700" r="3.5" fill="#11131a" stroke="#ef7c1c" stroke-width="2"/>
<circle cx="640" cy="640" r="3.5" fill="#11131a" stroke="#ef7c1c" stroke-width="2"/>
<circle cx="900" cy="560" r="3.5" fill="#11131a" stroke="#ef7c1c" stroke-width="2"/>
<polyline points="60,430 280,400 520,360 740,200 1010,120" fill="none" stroke="#bb1833" stroke-width="3" stroke-linejoin="round" stroke-linecap="round"/>
<circle cx="60" cy="430" r="3.5" fill="#11131a" stroke="#bb1833" stroke-width="2"/>
<circle cx="280" cy="400" r="3.5" fill="#11131a" stroke="#bb1833" stroke-width="2"/>
<circle cx="520" cy="360" r="3.5" fill="#11131a" stroke="#bb1833" stroke-width="2"/>
<circle cx="740" cy="200" r="3.5" fill="#11131a" stroke="#bb1833" stroke-width="2"/>
<circle cx="1010" cy="120" r="3.5" fill="#11131a" stroke="#bb1833" stroke-width="2"/>
<circle cx="740" cy="330" r="26" fill="#4d8bf5" fill-opacity="0.18"/>
<circle cx="740" cy="330" r="15" fill="#4d8bf5" fill-opacity="0.32"/>
<circle cx="740" cy="330" r="7" fill="#4d8bf5"/>
<text x="756" y="316" font-family="Noto Sans KR, Pretendard, sans-serif" font-size="11" fill="#e8eaed" text-anchor="start" font-weight="400">판교역</text>
<rect x="16" y="16" width="54" height="30" fill="#1e2128" rx="6" stroke="#333842" stroke-width="1"/>
<text x="43.0" y="35.0" font-family="Noto Sans KR, Pretendard, sans-serif" font-size="12" fill="#e8eaed" text-anchor="middle" font-weight="400">밝게</text>
<rect x="78" y="16" width="120" height="30" fill="#1e2128" rx="6" stroke="#333842" stroke-width="1"/>
<text x="138.0" y="35.0" font-family="Noto Sans KR, Pretendard, sans-serif" font-size="12" fill="#e8eaed" text-anchor="middle" font-weight="400">✓ 지하철 노선도</text>
<rect x="206" y="16" width="72" height="30" fill="#1e2128" rx="6" stroke="#333842" stroke-width="1"/>
<text x="242.0" y="35.0" font-family="Noto Sans KR, Pretendard, sans-serif" font-size="12" fill="#e8eaed" text-anchor="middle" font-weight="400">노선 ▸</text>
<rect x="1004" y="760" width="36" height="32" fill="#1e2128" rx="6" stroke="#333842" stroke-width="1"/>
<text x="1022.0" y="780.0" font-family="Noto Sans KR, Pretendard, sans-serif" font-size="12" fill="#e8eaed" text-anchor="middle" font-weight="400">+</text>
<rect x="1004" y="796" width="36" height="32" fill="#1e2128" rx="6" stroke="#333842" stroke-width="1"/>
<text x="1022.0" y="816.0" font-family="Noto Sans KR, Pretendard, sans-serif" font-size="12" fill="#e8eaed" text-anchor="middle" font-weight="400">−</text>
<text x="16" y="882" font-family="Noto Sans KR, Pretendard, sans-serif" font-size="10" fill="#9aa0a6" text-anchor="start" font-weight="400">지도 데이터 ©OpenStreetMap · 등급 산정 근거: 공공데이터</text>
<polygon points="588,444 552,487 489,478 493,429 515,388 575,393" fill="#2e9e5b" fill-opacity="0.85" stroke="#ffffff" stroke-width="2.5"/>
<rect x="497" y="450" width="86" height="22" fill="#0b0d12" rx="11" stroke="#ffffff" stroke-width="1"/>
<text x="540" y="465" font-family="Noto Sans KR, Pretendard, sans-serif" font-size="11" fill="#ffffff" text-anchor="middle" font-weight="700">풍덕천2동</text>
<rect x="1060" y="0" width="380" height="900" fill="#1e2128" rx="0"/>
<text x="1080" y="34" font-family="Noto Sans KR, Pretendard, sans-serif" font-size="15" fill="#e8eaed" text-anchor="start" font-weight="700">I Don't Know Seoul</text>
<rect x="1080" y="50" width="104" height="26" fill="#262a33" rx="6" stroke="#333842" stroke-width="1"/>
<text x="1132" y="67" font-family="Noto Sans KR, Pretendard, sans-serif" font-size="11" fill="#e8eaed" text-anchor="middle" font-weight="400">seoul_kim ▾</text>
<rect x="1080" y="92" width="340" height="34" fill="#262a33" rx="6" stroke="#333842" stroke-width="1"/>
<text x="1090" y="113" font-family="Noto Sans KR, Pretendard, sans-serif" font-size="12" fill="#9aa0a6" text-anchor="start" font-weight="400">회사나 학교를 검색하세요</text>
<text x="1080" y="140" font-family="Noto Sans KR, Pretendard, sans-serif" font-size="11" fill="#9aa0a6" text-anchor="start" font-weight="400">목적지 (최대 3)</text>
<rect x="1080" y="148" width="150" height="26" fill="#262a33" rx="13" stroke="#333842" stroke-width="1"/>
<text x="1094" y="165" font-family="Noto Sans KR, Pretendard, sans-serif" font-size="11" fill="#e8eaed" text-anchor="start" font-weight="400">판교역 지하철역</text>
<rect x="1080" y="216" width="113.33333333333333" height="32" fill="#1e2128" rx="6" stroke="#333842" stroke-width="1"/>
<text x="1136.6666666666667" y="237" font-family="Noto Sans KR, Pretendard, sans-serif" font-size="11" fill="#9aa0a6" text-anchor="middle" font-weight="400">상세 정보</text>
<rect x="1193.3333333333333" y="216" width="113.33333333333333" height="32" fill="#1e2128" rx="6" stroke="#333842" stroke-width="1"/>
<text x="1250" y="237" font-family="Noto Sans KR, Pretendard, sans-serif" font-size="11" fill="#9aa0a6" text-anchor="middle" font-weight="400">조건·추천</text>
<rect x="1306.6666666666667" y="216" width="113.33333333333333" height="32" fill="#262a33" rx="6" stroke="#333842" stroke-width="1"/>
<text x="1363.3333333333335" y="237" font-family="Noto Sans KR, Pretendard, sans-serif" font-size="11" fill="#e8eaed" text-anchor="middle" font-weight="700">사용자 후기</text>
<rect x="1306.6666666666667" y="246" width="113.33333333333333" height="2" fill="#4d8bf5" rx="0"/>
<circle cx="1070" cy="232" r="11" fill="#4d8bf5"/><text x="1070" y="236.5" font-family="Noto Sans KR, Pretendard, sans-serif" font-size="13" fill="#ffffff" text-anchor="middle" font-weight="700">①</text>
<text x="1080" y="274" font-family="Noto Sans KR, Pretendard, sans-serif" font-size="12" fill="#e8eaed" text-anchor="start" font-weight="700">풍덕천2동 실거주 후기 12건</text>
<rect x="1080" y="286" width="176" height="28" fill="#262a33" rx="6" stroke="#333842" stroke-width="1"/>
<text x="1092" y="304" font-family="Noto Sans KR, Pretendard, sans-serif" font-size="11" fill="#e8eaed" text-anchor="start" font-weight="400">현재 목적지 관련순</text>
<text x="1244" y="304" font-family="Noto Sans KR, Pretendard, sans-serif" font-size="11" fill="#9aa0a6" text-anchor="start" font-weight="400">▾</text>
<circle cx="1070" cy="300" r="11" fill="#4d8bf5"/><text x="1070" y="304.5" font-family="Noto Sans KR, Pretendard, sans-serif" font-size="13" fill="#ffffff" text-anchor="middle" font-weight="700">②</text>
<rect x="1080" y="318" width="176" height="86" fill="#262a33" rx="8" stroke="#333842" stroke-width="1"/>
<rect x="1084" y="322" width="168" height="24" fill="#4d8bf5" rx="6"/>
<text x="1094" y="338" font-family="Noto Sans KR, Pretendard, sans-serif" font-size="11" fill="#ffffff" text-anchor="start" font-weight="700">✓ 현재 목적지 관련순</text>
<text x="1094" y="366" font-family="Noto Sans KR, Pretendard, sans-serif" font-size="11" fill="#9aa0a6" text-anchor="start" font-weight="400">최신순</text>
<text x="1094" y="394" font-family="Noto Sans KR, Pretendard, sans-serif" font-size="11" fill="#9aa0a6" text-anchor="start" font-weight="400">도움돼요순</text>
<text x="1268" y="340" font-family="Noto Sans KR, Pretendard, sans-serif" font-size="10" fill="#9aa0a6" text-anchor="start" font-weight="400">목적지 0곳이면</text>
<text x="1268" y="356" font-family="Noto Sans KR, Pretendard, sans-serif" font-size="10" fill="#9aa0a6" text-anchor="start" font-weight="400">[최신순]이 기본값</text>
<rect x="1080" y="412" width="340" height="164" fill="#262a33" rx="8" stroke="#333842" stroke-width="1"/>
<text x="1094" y="436" font-family="Noto Sans KR, Pretendard, sans-serif" font-size="12" fill="#e8eaed" text-anchor="start" font-weight="700">수지살이</text>
<text x="1094" y="456" font-family="Noto Sans KR, Pretendard, sans-serif" font-size="11" fill="#9aa0a6" text-anchor="start" font-weight="400">거주 1년 4개월 · 판교역까지 38분 (체감 45분)</text>
<text x="1094" y="478" font-family="Noto Sans KR, Pretendard, sans-serif" font-size="10" fill="#9aa0a6" text-anchor="start" font-weight="400">치안</text>
<text x="1122" y="478" font-family="Noto Sans KR, Pretendard, sans-serif" font-size="11" fill="#e0a52b" text-anchor="start" font-weight="400">★★★★☆</text>
<text x="1206" y="478" font-family="Noto Sans KR, Pretendard, sans-serif" font-size="10" fill="#9aa0a6" text-anchor="start" font-weight="400">가격</text>
<text x="1234" y="478" font-family="Noto Sans KR, Pretendard, sans-serif" font-size="11" fill="#e0a52b" text-anchor="start" font-weight="400">★★★☆☆</text>
<text x="1094" y="496" font-family="Noto Sans KR, Pretendard, sans-serif" font-size="10" fill="#9aa0a6" text-anchor="start" font-weight="400">생활편의</text>
<text x="1146" y="496" font-family="Noto Sans KR, Pretendard, sans-serif" font-size="11" fill="#e0a52b" text-anchor="start" font-weight="400">★★★★☆</text>
<text x="1094" y="518" font-family="Noto Sans KR, Pretendard, sans-serif" font-size="11" fill="#e8eaed" text-anchor="start" font-weight="400">"언덕이 심해서 겨울엔 힘든데, 신분당선 한 번에</text>
<text x="1094" y="534" font-family="Noto Sans KR, Pretendard, sans-serif" font-size="11" fill="#e8eaed" text-anchor="start" font-weight="400">판교 가는 건 진짜 편합니다."</text>
<rect x="1094" y="542" width="96" height="24" fill="#4d8bf5" rx="12" stroke="#333842" stroke-width="1"/>
<g transform="translate(1106,549)"><path d="M0,4.2 L0,10 L2.4,10 L2.4,4.2 Z" fill="#ffffff"/><path d="M3.4,4.2 L5.9,0.6 L6.8,1.1 L6.1,4.2 L9.4,4.2 Q10.4,4.2 10.2,5.2 L9.3,9.2 Q9.1,10 8.2,10 L3.4,10 Z" fill="#ffffff"/></g>
<text x="1124" y="558" font-family="Noto Sans KR, Pretendard, sans-serif" font-size="10" fill="#ffffff" text-anchor="start" font-weight="700">도움돼요 7</text>
<rect x="1080" y="588" width="340" height="164" fill="#262a33" rx="8" stroke="#333842" stroke-width="1"/>
<text x="1094" y="612" font-family="Noto Sans KR, Pretendard, sans-serif" font-size="12" fill="#e8eaed" text-anchor="start" font-weight="700">seoul_kim</text>
<rect x="1326" y="598" width="80" height="22" fill="#1e2128" rx="11" stroke="#333842" stroke-width="1"/>
<text x="1366" y="613" font-family="Noto Sans KR, Pretendard, sans-serif" font-size="10" fill="#4d8bf5" text-anchor="middle" font-weight="700">내 후기 수정</text>
<text x="1094" y="632" font-family="Noto Sans KR, Pretendard, sans-serif" font-size="11" fill="#9aa0a6" text-anchor="start" font-weight="400">거주 2년 1개월 · 판교역까지 41분 (체감 40분)</text>
<text x="1094" y="654" font-family="Noto Sans KR, Pretendard, sans-serif" font-size="10" fill="#9aa0a6" text-anchor="start" font-weight="400">치안</text>
<text x="1122" y="654" font-family="Noto Sans KR, Pretendard, sans-serif" font-size="11" fill="#e0a52b" text-anchor="start" font-weight="400">★★★★★</text>
<text x="1206" y="654" font-family="Noto Sans KR, Pretendard, sans-serif" font-size="10" fill="#9aa0a6" text-anchor="start" font-weight="400">가격</text>
<text x="1234" y="654" font-family="Noto Sans KR, Pretendard, sans-serif" font-size="11" fill="#e0a52b" text-anchor="start" font-weight="400">★★☆☆☆</text>
<text x="1094" y="672" font-family="Noto Sans KR, Pretendard, sans-serif" font-size="10" fill="#9aa0a6" text-anchor="start" font-weight="400">생활편의</text>
<text x="1146" y="672" font-family="Noto Sans KR, Pretendard, sans-serif" font-size="11" fill="#e0a52b" text-anchor="start" font-weight="400">★★★★☆</text>
<text x="1094" y="694" font-family="Noto Sans KR, Pretendard, sans-serif" font-size="11" fill="#e8eaed" text-anchor="start" font-weight="400">"월세는 비싼 편이지만 밤에도 걸어다닐 만해요.</text>
<text x="1094" y="710" font-family="Noto Sans KR, Pretendard, sans-serif" font-size="11" fill="#e8eaed" text-anchor="start" font-weight="400">마트·병원도 도보권입니다."</text>
<rect x="1094" y="718" width="96" height="24" fill="#1e2128" rx="12" stroke="#333842" stroke-width="1"/>
<g transform="translate(1106,725)"><path d="M0,4.2 L0,10 L2.4,10 L2.4,4.2 Z" fill="#9aa0a6"/><path d="M3.4,4.2 L5.9,0.6 L6.8,1.1 L6.1,4.2 L9.4,4.2 Q10.4,4.2 10.2,5.2 L9.3,9.2 Q9.1,10 8.2,10 L3.4,10 Z" fill="#9aa0a6"/></g>
<text x="1124" y="734" font-family="Noto Sans KR, Pretendard, sans-serif" font-size="10" fill="#9aa0a6" text-anchor="start" font-weight="400">도움돼요 3</text>
<circle cx="1070" cy="430" r="11" fill="#4d8bf5"/><text x="1070" y="434.5" font-family="Noto Sans KR, Pretendard, sans-serif" font-size="13" fill="#ffffff" text-anchor="middle" font-weight="700">③</text>
<circle cx="1070" cy="554" r="11" fill="#4d8bf5"/><text x="1070" y="558.5" font-family="Noto Sans KR, Pretendard, sans-serif" font-size="13" fill="#ffffff" text-anchor="middle" font-weight="700">④</text>
<text x="1248" y="778" font-family="Noto Sans KR, Pretendard, sans-serif" font-size="10" fill="#9aa0a6" text-anchor="end" font-weight="400">20건 단위 페이징</text>
<rect x="1258" y="766" width="24" height="22" fill="#4d8bf5" rx="6"/>
<text x="1270" y="781" font-family="Noto Sans KR, Pretendard, sans-serif" font-size="10" fill="#ffffff" text-anchor="middle" font-weight="700">1</text>
<rect x="1286" y="766" width="24" height="22" fill="#1e2128" rx="6" stroke="#333842" stroke-width="1"/>
<text x="1298" y="781" font-family="Noto Sans KR, Pretendard, sans-serif" font-size="10" fill="#9aa0a6" text-anchor="middle" font-weight="400">2</text>
<rect x="1314" y="766" width="24" height="22" fill="#1e2128" rx="6" stroke="#333842" stroke-width="1"/>
<text x="1326" y="781" font-family="Noto Sans KR, Pretendard, sans-serif" font-size="10" fill="#9aa0a6" text-anchor="middle" font-weight="400">›</text>
<rect x="1080" y="796" width="340" height="40" fill="#4d8bf5" rx="8"/>
<text x="1250" y="821" font-family="Noto Sans KR, Pretendard, sans-serif" font-size="13" fill="#ffffff" text-anchor="middle" font-weight="700">+ 후기 남기기</text>
<circle cx="1070" cy="816" r="11" fill="#4d8bf5"/><text x="1070" y="820.5" font-family="Noto Sans KR, Pretendard, sans-serif" font-size="13" fill="#ffffff" text-anchor="middle" font-weight="700">⑤</text>
<text x="1080" y="856" font-family="Noto Sans KR, Pretendard, sans-serif" font-size="10" fill="#9aa0a6" text-anchor="start" font-weight="400">이미 이 행정동에 후기를 쓴 회원에게는 [내 후기 수정]으로 표시한다.</text>
<text x="1080" y="872" font-family="Noto Sans KR, Pretendard, sans-serif" font-size="10" fill="#9aa0a6" text-anchor="start" font-weight="400">비로그인 상태에서 ④·⑤를 누르면 SCR-AUTH-001 로그인 모달을 띄운다.</text>
</svg>
